<svg width="27" height="29" viewBox="0 0 27 29" fill="none" xmlns="http://www.w3.org/2000/svg">
<path d="M16.6876 18.744C17.7756 12.568 18.3196 7.416 18.3196 3.288C18.3196 2.968 18.3196 2.68 18.3196 2.424L18.2236 0.599999C21.6476 2.104 24.5596 3.128 26.9596 3.672C26.5756 7.64 26.0156 11.544 25.2796 15.384C24.5756 19.192 23.9516 22.008 23.4076 23.832L22.6396 26.568C20.4636 26.568 18.1756 26.952 15.7756 27.72L14.5756 28.104L10.5436 13.608C9.61556 17.096 8.62356 21.96 7.56756 28.2C6.31956 27.752 5.02356 27.112 3.67956 26.28C2.33556 25.416 1.31156 24.568 0.607563 23.736C0.959563 20.632 1.50356 17.528 2.23956 14.424C3.00756 11.32 3.69556 8.984 4.30356 7.416L5.16756 5.112C7.59956 4.216 10.4636 3.56 13.7596 3.144L16.6876 18.744Z" fill="url(#paint0_linear_79_330)"/>
<defs>
<linearGradient id="paint0_linear_79_330" x1="2.79909" y1="-12" x2="22.0594" y2="-12" gradientUnits="userSpaceOnUse">
<stop stop-color="#7900D9"/>
<stop offset="0.322855" stop-color="#6714FF" stop-opacity="0.995989"/>
<stop offset="0.718705" stop-color="#5865D5" stop-opacity="0.98959"/>
<stop offset="1" stop-color="#A705B5"/>
</linearGradient>
</defs>
</svg>
