<svg width="328" height="31" viewBox="0 0 328 31" fill="none" xmlns="http://www.w3.org/2000/svg">
<path d="M22.8164 1.5625V30H19.0273L4.71094 8.06641V30H0.941406V1.5625H4.71094L19.0859 23.5547V1.5625H22.8164ZM32.875 8.86719V30H29.2422V8.86719H32.875ZM28.9688 3.26172C28.9688 2.67578 29.1445 2.18099 29.4961 1.77734C29.8607 1.3737 30.3945 1.17188 31.0977 1.17188C31.7878 1.17188 32.3151 1.3737 32.6797 1.77734C33.0573 2.18099 33.2461 2.67578 33.2461 3.26172C33.2461 3.82161 33.0573 4.30339 32.6797 4.70703C32.3151 5.09766 31.7878 5.29297 31.0977 5.29297C30.3945 5.29297 29.8607 5.09766 29.4961 4.70703C29.1445 4.30339 28.9688 3.82161 28.9688 3.26172ZM50.9805 24.3945C50.9805 23.8737 50.8633 23.3919 50.6289 22.9492C50.4076 22.4935 49.9453 22.0833 49.2422 21.7188C48.5521 21.3411 47.5104 21.0156 46.1172 20.7422C44.9453 20.4948 43.8841 20.2018 42.9336 19.8633C41.9961 19.5247 41.1953 19.1146 40.5312 18.6328C39.8802 18.151 39.3789 17.5846 39.0273 16.9336C38.6758 16.2826 38.5 15.5208 38.5 14.6484C38.5 13.8151 38.6823 13.0273 39.0469 12.2852C39.4245 11.543 39.9518 10.8854 40.6289 10.3125C41.319 9.73958 42.1458 9.29036 43.1094 8.96484C44.0729 8.63932 45.1471 8.47656 46.332 8.47656C48.0247 8.47656 49.4701 8.77604 50.668 9.375C51.8659 9.97396 52.7839 10.7747 53.4219 11.7773C54.0599 12.7669 54.3789 13.8672 54.3789 15.0781H50.7656C50.7656 14.4922 50.5898 13.9258 50.2383 13.3789C49.8997 12.819 49.3984 12.3568 48.7344 11.9922C48.0833 11.6276 47.2826 11.4453 46.332 11.4453C45.3294 11.4453 44.5156 11.6016 43.8906 11.9141C43.2786 12.2135 42.8294 12.5977 42.543 13.0664C42.2695 13.5352 42.1328 14.0299 42.1328 14.5508C42.1328 14.9414 42.1979 15.293 42.3281 15.6055C42.4714 15.9049 42.7188 16.1849 43.0703 16.4453C43.4219 16.6927 43.9167 16.9271 44.5547 17.1484C45.1927 17.3698 46.0065 17.5911 46.9961 17.8125C48.7279 18.2031 50.1536 18.6719 51.2734 19.2188C52.3932 19.7656 53.2266 20.4362 53.7734 21.2305C54.3203 22.0247 54.5938 22.9883 54.5938 24.1211C54.5938 25.0456 54.3984 25.8919 54.0078 26.6602C53.6302 27.4284 53.0768 28.0924 52.3477 28.6523C51.6315 29.1992 50.7721 29.6289 49.7695 29.9414C48.7799 30.2409 47.6667 30.3906 46.4297 30.3906C44.5677 30.3906 42.9922 30.0586 41.7031 29.3945C40.4141 28.7305 39.4375 27.8711 38.7734 26.8164C38.1094 25.7617 37.7773 24.6484 37.7773 23.4766H41.4102C41.4622 24.4661 41.7487 25.2539 42.2695 25.8398C42.7904 26.4128 43.4284 26.8229 44.1836 27.0703C44.9388 27.3047 45.6875 27.4219 46.4297 27.4219C47.4193 27.4219 48.2461 27.2917 48.9102 27.0312C49.5872 26.7708 50.1016 26.4128 50.4531 25.957C50.8047 25.5013 50.9805 24.9805 50.9805 24.3945ZM62.9531 0V30H59.3398V0H62.9531ZM62.0938 18.6328L60.5898 18.5742C60.6029 17.1289 60.8177 15.7943 61.2344 14.5703C61.651 13.3333 62.237 12.2591 62.9922 11.3477C63.7474 10.4362 64.6458 9.73307 65.6875 9.23828C66.7422 8.73047 67.9076 8.47656 69.1836 8.47656C70.2253 8.47656 71.1628 8.61979 71.9961 8.90625C72.8294 9.17969 73.5391 9.6224 74.125 10.2344C74.724 10.8464 75.1797 11.6406 75.4922 12.6172C75.8047 13.5807 75.9609 14.7591 75.9609 16.1523V30H72.3281V16.1133C72.3281 15.0065 72.1654 14.1211 71.8398 13.457C71.5143 12.7799 71.0391 12.2917 70.4141 11.9922C69.7891 11.6797 69.0208 11.5234 68.1094 11.5234C67.2109 11.5234 66.3906 11.7122 65.6484 12.0898C64.9193 12.4674 64.2878 12.9883 63.7539 13.6523C63.2331 14.3164 62.8229 15.0781 62.5234 15.9375C62.237 16.7839 62.0938 17.6823 62.0938 18.6328ZM93.832 26.3867V15.5078C93.832 14.6745 93.6628 13.9518 93.3242 13.3398C92.9987 12.7148 92.5039 12.2331 91.8398 11.8945C91.1758 11.556 90.3555 11.3867 89.3789 11.3867C88.4674 11.3867 87.6667 11.543 86.9766 11.8555C86.2995 12.168 85.7656 12.5781 85.375 13.0859C84.9974 13.5938 84.8086 14.1406 84.8086 14.7266H81.1953C81.1953 13.9714 81.3906 13.2227 81.7812 12.4805C82.1719 11.7383 82.7318 11.0677 83.4609 10.4688C84.2031 9.85677 85.0885 9.375 86.1172 9.02344C87.1589 8.65885 88.3177 8.47656 89.5938 8.47656C91.1302 8.47656 92.4844 8.73698 93.6562 9.25781C94.8411 9.77865 95.7656 10.5664 96.4297 11.6211C97.1068 12.6628 97.4453 13.9714 97.4453 15.5469V25.3906C97.4453 26.0938 97.5039 26.8424 97.6211 27.6367C97.7513 28.431 97.9401 29.1146 98.1875 29.6875V30H94.418C94.2357 29.5833 94.0924 29.0299 93.9883 28.3398C93.8841 27.6367 93.832 26.9857 93.832 26.3867ZM94.457 17.1875L94.4961 19.7266H90.8438C89.8151 19.7266 88.8971 19.8112 88.0898 19.9805C87.2826 20.1367 86.6055 20.3776 86.0586 20.7031C85.5117 21.0286 85.0951 21.4388 84.8086 21.9336C84.5221 22.4154 84.3789 22.9818 84.3789 23.6328C84.3789 24.2969 84.5286 24.9023 84.8281 25.4492C85.1276 25.9961 85.5768 26.4323 86.1758 26.7578C86.7878 27.0703 87.5365 27.2266 88.4219 27.2266C89.5286 27.2266 90.5052 26.9922 91.3516 26.5234C92.1979 26.0547 92.8685 25.4818 93.3633 24.8047C93.8711 24.1276 94.1445 23.4701 94.1836 22.832L95.7266 24.5703C95.6354 25.1172 95.388 25.7227 94.9844 26.3867C94.5807 27.0508 94.0404 27.6888 93.3633 28.3008C92.6992 28.8997 91.9049 29.401 90.9805 29.8047C90.069 30.1953 89.0404 30.3906 87.8945 30.3906C86.4622 30.3906 85.2057 30.1107 84.125 29.5508C83.0573 28.9909 82.224 28.2422 81.625 27.3047C81.0391 26.3542 80.7461 25.293 80.7461 24.1211C80.7461 22.9883 80.9674 21.9922 81.4102 21.1328C81.8529 20.2604 82.4909 19.5378 83.3242 18.9648C84.1576 18.3789 85.1602 17.9362 86.332 17.6367C87.5039 17.3372 88.8125 17.1875 90.2578 17.1875H94.457ZM106.742 13.3789V30H103.129V8.86719H106.547L106.742 13.3789ZM105.883 18.6328L104.379 18.5742C104.392 17.1289 104.607 15.7943 105.023 14.5703C105.44 13.3333 106.026 12.2591 106.781 11.3477C107.536 10.4362 108.435 9.73307 109.477 9.23828C110.531 8.73047 111.697 8.47656 112.973 8.47656C114.014 8.47656 114.952 8.61979 115.785 8.90625C116.618 9.17969 117.328 9.6224 117.914 10.2344C118.513 10.8464 118.969 11.6406 119.281 12.6172C119.594 13.5807 119.75 14.7591 119.75 16.1523V30H116.117V16.1133C116.117 15.0065 115.954 14.1211 115.629 13.457C115.303 12.7799 114.828 12.2917 114.203 11.9922C113.578 11.6797 112.81 11.5234 111.898 11.5234C111 11.5234 110.18 11.7122 109.438 12.0898C108.708 12.4674 108.077 12.9883 107.543 13.6523C107.022 14.3164 106.612 15.0781 106.312 15.9375C106.026 16.7839 105.883 17.6823 105.883 18.6328ZM134.086 8.86719V11.6406H122.66V8.86719H134.086ZM126.527 3.73047H130.141V24.7656C130.141 25.4818 130.251 26.0221 130.473 26.3867C130.694 26.7513 130.98 26.9922 131.332 27.1094C131.684 27.2266 132.061 27.2852 132.465 27.2852C132.764 27.2852 133.077 27.2591 133.402 27.207C133.741 27.1419 133.995 27.0898 134.164 27.0508L134.184 30C133.897 30.0911 133.52 30.1758 133.051 30.2539C132.595 30.3451 132.042 30.3906 131.391 30.3906C130.505 30.3906 129.691 30.2148 128.949 29.8633C128.207 29.5117 127.615 28.9258 127.172 28.1055C126.742 27.2721 126.527 26.1523 126.527 24.7461V3.73047ZM163.949 22.8125C163.949 22.1484 163.845 21.5625 163.637 21.0547C163.441 20.5339 163.09 20.0651 162.582 19.6484C162.087 19.2318 161.397 18.8346 160.512 18.457C159.639 18.0794 158.533 17.6953 157.191 17.3047C155.785 16.888 154.516 16.4258 153.383 15.918C152.25 15.3971 151.28 14.8047 150.473 14.1406C149.665 13.4766 149.047 12.7148 148.617 11.8555C148.188 10.9961 147.973 10.013 147.973 8.90625C147.973 7.79948 148.201 6.77734 148.656 5.83984C149.112 4.90234 149.763 4.08854 150.609 3.39844C151.469 2.69531 152.491 2.14844 153.676 1.75781C154.861 1.36719 156.182 1.17188 157.641 1.17188C159.776 1.17188 161.586 1.58203 163.07 2.40234C164.568 3.20964 165.707 4.27083 166.488 5.58594C167.27 6.88802 167.66 8.28125 167.66 9.76562H163.91C163.91 8.69792 163.682 7.75391 163.227 6.93359C162.771 6.10026 162.081 5.44922 161.156 4.98047C160.232 4.4987 159.06 4.25781 157.641 4.25781C156.299 4.25781 155.193 4.45964 154.32 4.86328C153.448 5.26693 152.797 5.8138 152.367 6.50391C151.951 7.19401 151.742 7.98177 151.742 8.86719C151.742 9.46615 151.866 10.013 152.113 10.5078C152.374 10.9896 152.771 11.4388 153.305 11.8555C153.852 12.2721 154.542 12.6562 155.375 13.0078C156.221 13.3594 157.23 13.6979 158.402 14.0234C160.017 14.4792 161.41 14.987 162.582 15.5469C163.754 16.1068 164.717 16.7383 165.473 17.4414C166.241 18.1315 166.807 18.9193 167.172 19.8047C167.549 20.6771 167.738 21.6667 167.738 22.7734C167.738 23.9323 167.504 24.9805 167.035 25.918C166.566 26.8555 165.896 27.6562 165.023 28.3203C164.151 28.9844 163.103 29.4987 161.879 29.8633C160.668 30.2148 159.314 30.3906 157.816 30.3906C156.501 30.3906 155.206 30.2083 153.93 29.8438C152.667 29.4792 151.514 28.9323 150.473 28.2031C149.444 27.474 148.617 26.5755 147.992 25.5078C147.38 24.4271 147.074 23.1771 147.074 21.7578H150.824C150.824 22.7344 151.013 23.5742 151.391 24.2773C151.768 24.9674 152.283 25.5404 152.934 25.9961C153.598 26.4518 154.346 26.7904 155.18 27.0117C156.026 27.2201 156.905 27.3242 157.816 27.3242C159.132 27.3242 160.245 27.1419 161.156 26.7773C162.068 26.4128 162.758 25.8919 163.227 25.2148C163.708 24.5378 163.949 23.737 163.949 22.8125ZM175.609 12.1875V30H171.996V8.86719H175.512L175.609 12.1875ZM182.211 8.75L182.191 12.1094C181.892 12.0443 181.605 12.0052 181.332 11.9922C181.072 11.9661 180.772 11.9531 180.434 11.9531C179.6 11.9531 178.865 12.0833 178.227 12.3438C177.589 12.6042 177.048 12.9688 176.605 13.4375C176.163 13.9062 175.811 14.4661 175.551 15.1172C175.303 15.7552 175.141 16.4583 175.062 17.2266L174.047 17.8125C174.047 16.5365 174.171 15.3385 174.418 14.2188C174.678 13.099 175.076 12.1094 175.609 11.25C176.143 10.3776 176.82 9.70052 177.641 9.21875C178.474 8.72396 179.464 8.47656 180.609 8.47656C180.87 8.47656 181.169 8.50911 181.508 8.57422C181.846 8.6263 182.081 8.6849 182.211 8.75ZM189.477 8.86719V30H185.844V8.86719H189.477ZM185.57 3.26172C185.57 2.67578 185.746 2.18099 186.098 1.77734C186.462 1.3737 186.996 1.17188 187.699 1.17188C188.389 1.17188 188.917 1.3737 189.281 1.77734C189.659 2.18099 189.848 2.67578 189.848 3.26172C189.848 3.82161 189.659 4.30339 189.281 4.70703C188.917 5.09766 188.389 5.29297 187.699 5.29297C186.996 5.29297 186.462 5.09766 186.098 4.70703C185.746 4.30339 185.57 3.82161 185.57 3.26172ZM201.703 26.7383L207.484 8.86719H211.176L203.578 30H201.156L201.703 26.7383ZM196.879 8.86719L202.836 26.8359L203.246 30H200.824L193.168 8.86719H196.879ZM226.801 26.3867V15.5078C226.801 14.6745 226.632 13.9518 226.293 13.3398C225.967 12.7148 225.473 12.2331 224.809 11.8945C224.145 11.556 223.324 11.3867 222.348 11.3867C221.436 11.3867 220.635 11.543 219.945 11.8555C219.268 12.168 218.734 12.5781 218.344 13.0859C217.966 13.5938 217.777 14.1406 217.777 14.7266H214.164C214.164 13.9714 214.359 13.2227 214.75 12.4805C215.141 11.7383 215.701 11.0677 216.43 10.4688C217.172 9.85677 218.057 9.375 219.086 9.02344C220.128 8.65885 221.286 8.47656 222.562 8.47656C224.099 8.47656 225.453 8.73698 226.625 9.25781C227.81 9.77865 228.734 10.5664 229.398 11.6211C230.076 12.6628 230.414 13.9714 230.414 15.5469V25.3906C230.414 26.0938 230.473 26.8424 230.59 27.6367C230.72 28.431 230.909 29.1146 231.156 29.6875V30H227.387C227.204 29.5833 227.061 29.0299 226.957 28.3398C226.853 27.6367 226.801 26.9857 226.801 26.3867ZM227.426 17.1875L227.465 19.7266H223.812C222.784 19.7266 221.866 19.8112 221.059 19.9805C220.251 20.1367 219.574 20.3776 219.027 20.7031C218.48 21.0286 218.064 21.4388 217.777 21.9336C217.491 22.4154 217.348 22.9818 217.348 23.6328C217.348 24.2969 217.497 24.9023 217.797 25.4492C218.096 25.9961 218.546 26.4323 219.145 26.7578C219.757 27.0703 220.505 27.2266 221.391 27.2266C222.497 27.2266 223.474 26.9922 224.32 26.5234C225.167 26.0547 225.837 25.4818 226.332 24.8047C226.84 24.1276 227.113 23.4701 227.152 22.832L228.695 24.5703C228.604 25.1172 228.357 25.7227 227.953 26.3867C227.549 27.0508 227.009 27.6888 226.332 28.3008C225.668 28.8997 224.874 29.401 223.949 29.8047C223.038 30.1953 222.009 30.3906 220.863 30.3906C219.431 30.3906 218.174 30.1107 217.094 29.5508C216.026 28.9909 215.193 28.2422 214.594 27.3047C214.008 26.3542 213.715 25.293 213.715 24.1211C213.715 22.9883 213.936 21.9922 214.379 21.1328C214.822 20.2604 215.46 19.5378 216.293 18.9648C217.126 18.3789 218.129 17.9362 219.301 17.6367C220.473 17.3372 221.781 17.1875 223.227 17.1875H227.426ZM248.402 24.3945C248.402 23.8737 248.285 23.3919 248.051 22.9492C247.829 22.4935 247.367 22.0833 246.664 21.7188C245.974 21.3411 244.932 21.0156 243.539 20.7422C242.367 20.4948 241.306 20.2018 240.355 19.8633C239.418 19.5247 238.617 19.1146 237.953 18.6328C237.302 18.151 236.801 17.5846 236.449 16.9336C236.098 16.2826 235.922 15.5208 235.922 14.6484C235.922 13.8151 236.104 13.0273 236.469 12.2852C236.846 11.543 237.374 10.8854 238.051 10.3125C238.741 9.73958 239.568 9.29036 240.531 8.96484C241.495 8.63932 242.569 8.47656 243.754 8.47656C245.447 8.47656 246.892 8.77604 248.09 9.375C249.288 9.97396 250.206 10.7747 250.844 11.7773C251.482 12.7669 251.801 13.8672 251.801 15.0781H248.188C248.188 14.4922 248.012 13.9258 247.66 13.3789C247.322 12.819 246.82 12.3568 246.156 11.9922C245.505 11.6276 244.704 11.4453 243.754 11.4453C242.751 11.4453 241.938 11.6016 241.312 11.9141C240.701 12.2135 240.251 12.5977 239.965 13.0664C239.691 13.5352 239.555 14.0299 239.555 14.5508C239.555 14.9414 239.62 15.293 239.75 15.6055C239.893 15.9049 240.141 16.1849 240.492 16.4453C240.844 16.6927 241.339 16.9271 241.977 17.1484C242.615 17.3698 243.428 17.5911 244.418 17.8125C246.15 18.2031 247.576 18.6719 248.695 19.2188C249.815 19.7656 250.648 20.4362 251.195 21.2305C251.742 22.0247 252.016 22.9883 252.016 24.1211C252.016 25.0456 251.82 25.8919 251.43 26.6602C251.052 27.4284 250.499 28.0924 249.77 28.6523C249.053 29.1992 248.194 29.6289 247.191 29.9414C246.202 30.2409 245.089 30.3906 243.852 30.3906C241.99 30.3906 240.414 30.0586 239.125 29.3945C237.836 28.7305 236.859 27.8711 236.195 26.8164C235.531 25.7617 235.199 24.6484 235.199 23.4766H238.832C238.884 24.4661 239.171 25.2539 239.691 25.8398C240.212 26.4128 240.85 26.8229 241.605 27.0703C242.361 27.3047 243.109 27.4219 243.852 27.4219C244.841 27.4219 245.668 27.2917 246.332 27.0312C247.009 26.7708 247.523 26.4128 247.875 25.957C248.227 25.5013 248.402 24.9805 248.402 24.3945ZM265.609 8.86719V11.6406H254.184V8.86719H265.609ZM258.051 3.73047H261.664V24.7656C261.664 25.4818 261.775 26.0221 261.996 26.3867C262.217 26.7513 262.504 26.9922 262.855 27.1094C263.207 27.2266 263.585 27.2852 263.988 27.2852C264.288 27.2852 264.6 27.2591 264.926 27.207C265.264 27.1419 265.518 27.0898 265.688 27.0508L265.707 30C265.421 30.0911 265.043 30.1758 264.574 30.2539C264.118 30.3451 263.565 30.3906 262.914 30.3906C262.029 30.3906 261.215 30.2148 260.473 29.8633C259.73 29.5117 259.138 28.9258 258.695 28.1055C258.266 27.2721 258.051 26.1523 258.051 24.7461V3.73047ZM282.309 26.3867V15.5078C282.309 14.6745 282.139 13.9518 281.801 13.3398C281.475 12.7148 280.98 12.2331 280.316 11.8945C279.652 11.556 278.832 11.3867 277.855 11.3867C276.944 11.3867 276.143 11.543 275.453 11.8555C274.776 12.168 274.242 12.5781 273.852 13.0859C273.474 13.5938 273.285 14.1406 273.285 14.7266H269.672C269.672 13.9714 269.867 13.2227 270.258 12.4805C270.648 11.7383 271.208 11.0677 271.938 10.4688C272.68 9.85677 273.565 9.375 274.594 9.02344C275.635 8.65885 276.794 8.47656 278.07 8.47656C279.607 8.47656 280.961 8.73698 282.133 9.25781C283.318 9.77865 284.242 10.5664 284.906 11.6211C285.583 12.6628 285.922 13.9714 285.922 15.5469V25.3906C285.922 26.0938 285.98 26.8424 286.098 27.6367C286.228 28.431 286.417 29.1146 286.664 29.6875V30H282.895C282.712 29.5833 282.569 29.0299 282.465 28.3398C282.361 27.6367 282.309 26.9857 282.309 26.3867ZM282.934 17.1875L282.973 19.7266H279.32C278.292 19.7266 277.374 19.8112 276.566 19.9805C275.759 20.1367 275.082 20.3776 274.535 20.7031C273.988 21.0286 273.572 21.4388 273.285 21.9336C272.999 22.4154 272.855 22.9818 272.855 23.6328C272.855 24.2969 273.005 24.9023 273.305 25.4492C273.604 25.9961 274.053 26.4323 274.652 26.7578C275.264 27.0703 276.013 27.2266 276.898 27.2266C278.005 27.2266 278.982 26.9922 279.828 26.5234C280.674 26.0547 281.345 25.4818 281.84 24.8047C282.348 24.1276 282.621 23.4701 282.66 22.832L284.203 24.5703C284.112 25.1172 283.865 25.7227 283.461 26.3867C283.057 27.0508 282.517 27.6888 281.84 28.3008C281.176 28.8997 280.382 29.401 279.457 29.8047C278.546 30.1953 277.517 30.3906 276.371 30.3906C274.939 30.3906 273.682 30.1107 272.602 29.5508C271.534 28.9909 270.701 28.2422 270.102 27.3047C269.516 26.3542 269.223 25.293 269.223 24.1211C269.223 22.9883 269.444 21.9922 269.887 21.1328C270.329 20.2604 270.967 19.5378 271.801 18.9648C272.634 18.3789 273.637 17.9362 274.809 17.6367C275.98 17.3372 277.289 17.1875 278.734 17.1875H282.934ZM297.719 26.7383L303.5 8.86719H307.191L299.594 30H297.172L297.719 26.7383ZM292.895 8.86719L298.852 26.8359L299.262 30H296.84L289.184 8.86719H292.895ZM322.816 26.3867V15.5078C322.816 14.6745 322.647 13.9518 322.309 13.3398C321.983 12.7148 321.488 12.2331 320.824 11.8945C320.16 11.556 319.34 11.3867 318.363 11.3867C317.452 11.3867 316.651 11.543 315.961 11.8555C315.284 12.168 314.75 12.5781 314.359 13.0859C313.982 13.5938 313.793 14.1406 313.793 14.7266H310.18C310.18 13.9714 310.375 13.2227 310.766 12.4805C311.156 11.7383 311.716 11.0677 312.445 10.4688C313.188 9.85677 314.073 9.375 315.102 9.02344C316.143 8.65885 317.302 8.47656 318.578 8.47656C320.115 8.47656 321.469 8.73698 322.641 9.25781C323.826 9.77865 324.75 10.5664 325.414 11.6211C326.091 12.6628 326.43 13.9714 326.43 15.5469V25.3906C326.43 26.0938 326.488 26.8424 326.605 27.6367C326.736 28.431 326.924 29.1146 327.172 29.6875V30H323.402C323.22 29.5833 323.077 29.0299 322.973 28.3398C322.868 27.6367 322.816 26.9857 322.816 26.3867ZM323.441 17.1875L323.48 19.7266H319.828C318.799 19.7266 317.882 19.8112 317.074 19.9805C316.267 20.1367 315.59 20.3776 315.043 20.7031C314.496 21.0286 314.079 21.4388 313.793 21.9336C313.507 22.4154 313.363 22.9818 313.363 23.6328C313.363 24.2969 313.513 24.9023 313.812 25.4492C314.112 25.9961 314.561 26.4323 315.16 26.7578C315.772 27.0703 316.521 27.2266 317.406 27.2266C318.513 27.2266 319.49 26.9922 320.336 26.5234C321.182 26.0547 321.853 25.4818 322.348 24.8047C322.855 24.1276 323.129 23.4701 323.168 22.832L324.711 24.5703C324.62 25.1172 324.372 25.7227 323.969 26.3867C323.565 27.0508 323.025 27.6888 322.348 28.3008C321.684 28.8997 320.889 29.401 319.965 29.8047C319.053 30.1953 318.025 30.3906 316.879 30.3906C315.447 30.3906 314.19 30.1107 313.109 29.5508C312.042 28.9909 311.208 28.2422 310.609 27.3047C310.023 26.3542 309.73 25.293 309.73 24.1211C309.73 22.9883 309.952 21.9922 310.395 21.1328C310.837 20.2604 311.475 19.5378 312.309 18.9648C313.142 18.3789 314.145 17.9362 315.316 17.6367C316.488 17.3372 317.797 17.1875 319.242 17.1875H323.441Z" fill="url(#paint0_linear_56_256)"/>
<defs>
<linearGradient id="paint0_linear_56_256" x1="40.9817" y1="-7" x2="312.187" y2="-7" gradientUnits="userSpaceOnUse">
<stop stop-color="#7900D9"/>
<stop offset="0.322855" stop-color="#6714FF" stop-opacity="0.995989"/>
<stop offset="0.718705" stop-color="#5865D5" stop-opacity="0.98959"/>
<stop offset="1" stop-color="#A705B5"/>
</linearGradient>
</defs>
</svg>
