<svg width="169" height="33" viewBox="0 0 169 33" fill="none" xmlns="http://www.w3.org/2000/svg">
<path d="M16.7188 18.744C17.8068 12.568 18.3508 7.416 18.3508 3.288C18.3508 2.968 18.3508 2.68 18.3508 2.424L18.2548 0.599999C21.6788 2.104 24.5908 3.128 26.9908 3.672C26.6068 7.64 26.0468 11.544 25.3108 15.384C24.6068 19.192 23.9828 22.008 23.4388 23.832L22.6708 26.568C20.4948 26.568 18.2068 26.952 15.8068 27.72L14.6068 28.104L10.5748 13.608C9.64681 17.096 8.65481 21.96 7.59881 28.2C6.35081 27.752 5.05481 27.112 3.71081 26.28C2.36681 25.416 1.34281 24.568 0.638813 23.736C0.990813 20.632 1.53481 17.528 2.27081 14.424C3.03881 11.32 3.72681 8.984 4.33481 7.416L5.19881 5.112C7.63081 4.216 10.4948 3.56 13.7908 3.144L16.7188 18.744ZM41.0477 6.744C42.4877 7.384 43.6397 8.456 44.5037 9.96C45.3677 11.432 45.7997 13.208 45.7997 15.288C45.7997 17.336 45.2557 19.176 44.1677 20.808C43.1117 22.44 41.8477 23.688 40.3757 24.552C38.9357 25.416 37.6077 26.088 36.3917 26.568C35.2077 27.016 34.3597 27.24 33.8477 27.24C32.4717 26.568 31.1917 25.784 30.0077 24.888C28.8557 23.96 28.0397 23.208 27.5597 22.632L26.8397 21.768C26.8717 19.944 27.1277 18.248 27.6077 16.68C28.1197 15.08 28.7117 13.784 29.3837 12.792C30.8237 10.776 32.0877 9.432 33.1757 8.76L33.8957 8.28C35.2717 8.664 36.6317 9.112 37.9757 9.624L41.0477 6.744ZM40.7117 16.104L38.0237 13.848C35.9437 16.696 34.7917 19.656 34.5677 22.728C34.6957 22.696 34.8557 22.664 35.0477 22.632C35.2717 22.568 35.6717 22.392 36.2477 22.104C36.8237 21.816 37.3677 21.464 37.8797 21.048C38.3917 20.6 38.9197 19.944 39.4637 19.08C40.0077 18.216 40.4237 17.224 40.7117 16.104ZM56.2689 15.528C55.5329 19.432 55.1649 23 55.1649 26.232C55.1649 26.808 55.1809 27.352 55.2129 27.864C53.8049 27.416 52.3009 26.76 50.7009 25.896C49.1329 25.032 48.0289 24.168 47.3889 23.304C48.1569 20.04 48.9409 17.64 49.7409 16.104L50.1249 15.288C49.6769 14.456 48.8769 13.624 47.7249 12.792L47.1009 12.36C47.7409 11.88 49.0529 11.192 51.0369 10.296C51.5809 8.6 52.1729 7.08 52.8129 5.736C53.4529 4.36 53.9489 3.416 54.3009 2.904L54.8289 2.136L57.9009 8.376L62.9409 7.896L60.8289 17.16L56.2689 15.528ZM69.0542 23.256C69.4062 23.288 69.9502 23.304 70.6862 23.304C71.4222 23.304 72.5422 23.128 74.0462 22.776C75.5502 22.392 76.7982 21.976 77.7902 21.528L79.2302 20.808C79.2942 21.128 79.3262 21.432 79.3262 21.72C79.3262 22.968 78.7822 24.216 77.6942 25.464C76.2862 27.032 73.9342 28.152 70.6382 28.824C70.1582 28.76 69.5342 28.648 68.7662 28.488C68.0302 28.328 66.8302 27.832 65.1662 27C63.5342 26.2 62.3022 25.224 61.4702 24.072C61.6302 22.024 62.0622 19.928 62.7662 17.784C63.5022 15.608 64.1902 13.96 64.8302 12.84L65.7902 11.16C67.5822 11.064 69.3582 10.776 71.1182 10.296C72.8782 9.816 74.1742 9.368 75.0062 8.952L76.3022 8.28C77.4862 8.952 78.4142 9.864 79.0862 11.016C79.7902 12.168 80.1902 13.144 80.2862 13.944L80.4782 15.192C79.5822 17.208 78.0782 18.76 75.9662 19.848C73.8542 20.936 71.6462 21.56 69.3422 21.72C69.2462 22.136 69.1502 22.648 69.0542 23.256ZM73.4222 17.16C73.8382 16.52 74.0462 15.992 74.0462 15.576C74.0462 15.16 73.9022 14.84 73.6142 14.616C73.3582 14.36 73.0382 14.232 72.6542 14.232C72.2702 14.232 71.9022 14.264 71.5502 14.328C71.3262 15.128 70.7502 16.872 69.8222 19.56C71.3262 19.336 72.5262 18.536 73.4222 17.16ZM103.964 18.648C103.964 20.984 102.476 23.016 99.5004 24.744C96.5244 26.44 91.8044 27.624 85.3404 28.296C85.1164 28.136 84.7644 27.752 84.2844 27.144C83.8044 26.536 83.3884 25.944 83.0364 25.368C82.1084 23.832 81.4204 22.04 80.9724 19.992L85.4844 20.664C86.9564 20.824 88.2524 20.904 89.3724 20.904C92.9244 20.904 94.7004 20.12 94.7004 18.552C90.3484 18.168 87.2604 17.576 85.4364 16.776C83.6124 15.944 82.7004 14.488 82.7004 12.408C82.7004 9.368 84.5084 6.936 88.1244 5.112C91.7404 3.288 96.6364 2.376 102.812 2.376L104.3 12.6C100.972 11.64 96.4284 11.08 90.6684 10.92C91.3404 11.88 92.4604 12.632 94.0284 13.176C95.5964 13.72 97.0844 14.088 98.4924 14.28C99.9324 14.472 101.196 14.92 102.284 15.624C103.404 16.328 103.964 17.336 103.964 18.648ZM116.072 25.368C117.16 21.4 117.704 18.36 117.704 16.248C117.704 16.088 117.704 15.944 117.704 15.816L117.608 14.952C115.784 16.52 113.976 18.984 112.184 22.344C112.024 23.496 111.864 25.096 111.704 27.144C110.456 26.856 109.32 26.472 108.296 25.992C107.272 25.512 106.552 25.112 106.136 24.792L105.512 24.264C105.704 19.688 106.072 15.528 106.616 11.784L106.856 9.912L115.208 8.088C114.568 9.816 113.944 12.248 113.336 15.384C114.488 13.368 115.688 11.784 116.936 10.632C118.184 9.48 119.32 8.904 120.344 8.904C122.232 8.904 124.088 11.032 125.912 15.288C125.688 15.736 125.4 16.376 125.048 17.208C124.696 18.008 124.216 19.592 123.608 21.96C123 24.296 122.664 26.552 122.6 28.728C119.624 27.8 117.448 26.68 116.072 25.368ZM144.449 18.984C144.449 21.672 144.769 24.024 145.409 26.04L141.233 27.96C139.217 27.48 138.001 26.168 137.585 24.024C136.753 24.984 135.825 25.8 134.801 26.472C133.809 27.144 132.977 27.48 132.305 27.48C130.801 27.48 129.425 26.808 128.177 25.464C126.961 24.12 126.353 22.84 126.353 21.624C126.353 20.408 126.609 19.128 127.121 17.784C127.633 16.408 128.353 15.096 129.281 13.848C130.209 12.568 131.457 11.528 133.025 10.728C134.593 9.896 136.129 9.48 137.633 9.48C139.137 9.48 140.225 9.72 140.897 10.2L142.145 7.704C143.265 8.12 144.257 8.696 145.121 9.432C145.985 10.136 146.577 10.744 146.897 11.256L147.377 12.024C146.897 13.848 146.097 15.64 144.977 17.4L144.449 18.264C144.449 18.52 144.449 18.76 144.449 18.984ZM133.313 22.728C134.657 22.728 136.081 21.944 137.585 20.376C137.969 17.784 138.801 15.016 140.081 12.072C137.649 13.416 135.825 15.16 134.609 17.304C133.617 19.064 133.121 20.584 133.121 21.864C133.121 22.152 133.153 22.44 133.217 22.728C133.249 22.728 133.281 22.728 133.313 22.728ZM158.575 7.464C157.967 9.128 157.343 11.336 156.703 14.088C158.719 11.464 161.151 9.704 163.999 8.808L168.415 13.032C168.095 16.456 167.071 19.416 165.343 21.912C163.615 24.408 161.455 26.152 158.863 27.144C157.551 26.696 156.255 26.104 154.975 25.368C154.783 27.416 154.687 29.576 154.687 31.848C152.447 32.36 149.743 32.616 146.575 32.616C147.119 27.464 147.983 22.456 149.167 17.592L149.791 15.048L150.031 9.96C150.959 9.416 152.127 8.936 153.535 8.52C154.975 8.104 156.175 7.832 157.135 7.704L158.575 7.464ZM160.207 18.552C160.463 17.848 160.639 17.224 160.735 16.68C160.863 16.136 160.927 15.736 160.927 15.48C160.927 14.616 160.751 14.168 160.399 14.136L155.695 19.512C155.503 20.536 155.359 21.576 155.263 22.632L157.903 22.248C158.831 21.512 159.599 20.28 160.207 18.552Z" fill="url(#paint0_linear_11_93)"/>
<defs>
<linearGradient id="paint0_linear_11_93" x1="31" y1="-12" x2="145" y2="-12" gradientUnits="userSpaceOnUse">
<stop stop-color="#7900D9"/>
<stop offset="0.322855" stop-color="#6714FF" stop-opacity="0.995989"/>
<stop offset="0.718705" stop-color="#5865D5" stop-opacity="0.98959"/>
<stop offset="1" stop-color="#A705B5"/>
</linearGradient>
</defs>
</svg>
