<svg width="129" height="40" viewBox="0 0 129 40" fill="none" xmlns="http://www.w3.org/2000/svg">
<rect x="2.5" y="2.5" width="124" height="35" rx="12.5" stroke="url(#paint0_linear_132_2)" stroke-width="5"/>
<path d="M21.6719 24.0312V26H15.6172V24.0312H21.6719ZM16.4844 14.625V26H13.9375V14.625H16.4844ZM20.8906 19.2031V21.1094H15.6172V19.2031H20.8906ZM21.6797 14.625V16.6016H15.6172V14.625H21.6797ZM24.8125 17.5469L26.1094 19.9922L27.4453 17.5469H30.0078L27.7031 21.6719L30.1172 26H27.5391L26.1172 23.3906L24.7031 26H22.1172L24.5312 21.6719L22.2344 17.5469H24.8125ZM33.4453 19.1719V29.25H31.0078V17.5469H33.2812L33.4453 19.1719ZM38.7188 21.6797V21.8438C38.7188 22.4583 38.6484 23.0286 38.5078 23.5547C38.3672 24.0755 38.1562 24.5312 37.875 24.9219C37.599 25.3125 37.2578 25.6172 36.8516 25.8359C36.4453 26.0495 35.974 26.1562 35.4375 26.1562C34.9271 26.1562 34.4844 26.0495 34.1094 25.8359C33.7396 25.6172 33.4271 25.3151 33.1719 24.9297C32.9219 24.5391 32.7188 24.0938 32.5625 23.5938C32.4115 23.0885 32.2943 22.5495 32.2109 21.9766V21.6562C32.2943 21.0469 32.4141 20.4818 32.5703 19.9609C32.7266 19.4401 32.9297 18.9896 33.1797 18.6094C33.4297 18.224 33.7396 17.9245 34.1094 17.7109C34.4792 17.4974 34.9193 17.3906 35.4297 17.3906C35.9609 17.3906 36.4323 17.4922 36.8438 17.6953C37.2552 17.8984 37.599 18.1901 37.875 18.5703C38.1562 18.9453 38.3672 19.3958 38.5078 19.9219C38.6484 20.4479 38.7188 21.0339 38.7188 21.6797ZM36.2734 21.8438V21.6797C36.2734 21.3359 36.2474 21.0208 36.1953 20.7344C36.1432 20.4427 36.0599 20.1901 35.9453 19.9766C35.8307 19.7578 35.6797 19.5885 35.4922 19.4688C35.3047 19.349 35.0755 19.2891 34.8047 19.2891C34.513 19.2891 34.2656 19.3359 34.0625 19.4297C33.8594 19.5234 33.6953 19.6615 33.5703 19.8438C33.4453 20.0208 33.3542 20.2396 33.2969 20.5C33.2448 20.7604 33.2161 21.0573 33.2109 21.3906V22.25C33.2161 22.6406 33.2708 22.9896 33.375 23.2969C33.4844 23.599 33.6536 23.8359 33.8828 24.0078C34.1172 24.1745 34.4297 24.2578 34.8203 24.2578C35.0964 24.2578 35.3255 24.1979 35.5078 24.0781C35.6953 23.9531 35.8438 23.7786 35.9531 23.5547C36.0677 23.3307 36.1484 23.0729 36.1953 22.7812C36.2474 22.4896 36.2734 22.1771 36.2734 21.8438ZM42.5859 14V26H40.1406V14H42.5859ZM43.9922 21.8594V21.6953C43.9922 21.0755 44.0807 20.5052 44.2578 19.9844C44.4349 19.4583 44.6953 19.0026 45.0391 18.6172C45.3828 18.2318 45.8047 17.9323 46.3047 17.7188C46.8047 17.5 47.3776 17.3906 48.0234 17.3906C48.6797 17.3906 49.2578 17.5 49.7578 17.7188C50.263 17.9323 50.6875 18.2318 51.0312 18.6172C51.375 19.0026 51.6354 19.4583 51.8125 19.9844C51.9896 20.5052 52.0781 21.0755 52.0781 21.6953V21.8594C52.0781 22.474 51.9896 23.0443 51.8125 23.5703C51.6354 24.0911 51.375 24.5469 51.0312 24.9375C50.6875 25.3229 50.2656 25.6224 49.7656 25.8359C49.2656 26.0495 48.6901 26.1562 48.0391 26.1562C47.3932 26.1562 46.8177 26.0495 46.3125 25.8359C45.8073 25.6224 45.3828 25.3229 45.0391 24.9375C44.6953 24.5469 44.4349 24.0911 44.2578 23.5703C44.0807 23.0443 43.9922 22.474 43.9922 21.8594ZM46.4375 21.6953V21.8594C46.4375 22.1927 46.4635 22.5052 46.5156 22.7969C46.5729 23.0885 46.6641 23.3438 46.7891 23.5625C46.9141 23.7812 47.0781 23.9531 47.2812 24.0781C47.4896 24.1979 47.7422 24.2578 48.0391 24.2578C48.3359 24.2578 48.5859 24.1979 48.7891 24.0781C48.9922 23.9531 49.1562 23.7812 49.2812 23.5625C49.4062 23.3438 49.4948 23.0885 49.5469 22.7969C49.6042 22.5052 49.6328 22.1927 49.6328 21.8594V21.6953C49.6328 21.3672 49.6042 21.0599 49.5469 20.7734C49.4948 20.4818 49.4062 20.224 49.2812 20C49.1562 19.776 48.9896 19.6016 48.7812 19.4766C48.5781 19.3516 48.3255 19.2891 48.0234 19.2891C47.7318 19.2891 47.4844 19.3516 47.2812 19.4766C47.0781 19.6016 46.9141 19.776 46.7891 20C46.6641 20.224 46.5729 20.4818 46.5156 20.7734C46.4635 21.0599 46.4375 21.3672 46.4375 21.6953ZM55.8047 19.5156V26H53.3672V17.5469H55.6562L55.8047 19.5156ZM58.3281 17.4844L58.2891 19.7578C58.1849 19.7422 58.0495 19.7292 57.8828 19.7188C57.7161 19.7031 57.5729 19.6953 57.4531 19.6953C57.1406 19.6953 56.8698 19.7344 56.6406 19.8125C56.4167 19.8854 56.2292 19.9948 56.0781 20.1406C55.9323 20.2865 55.8229 20.4688 55.75 20.6875C55.6771 20.901 55.6406 21.1484 55.6406 21.4297L55.1797 21.2031C55.1797 20.6458 55.2344 20.1354 55.3438 19.6719C55.4531 19.2083 55.612 18.8073 55.8203 18.4688C56.0286 18.125 56.2839 17.8594 56.5859 17.6719C56.888 17.4844 57.2318 17.3906 57.6172 17.3906C57.7422 17.3906 57.8698 17.3984 58 17.4141C58.1302 17.4297 58.2396 17.4531 58.3281 17.4844ZM63.1562 26.1562C62.4844 26.1562 61.8828 26.0495 61.3516 25.8359C60.8203 25.6224 60.3698 25.3281 60 24.9531C59.6354 24.5729 59.3568 24.1354 59.1641 23.6406C58.9714 23.1458 58.875 22.6172 58.875 22.0547V21.7578C58.875 21.1276 58.9635 20.5469 59.1406 20.0156C59.3177 19.4844 59.5755 19.0234 59.9141 18.6328C60.2578 18.237 60.6797 17.9323 61.1797 17.7188C61.6797 17.5 62.25 17.3906 62.8906 17.3906C63.4896 17.3906 64.0234 17.4896 64.4922 17.6875C64.9609 17.8802 65.3568 18.1589 65.6797 18.5234C66.0026 18.8828 66.2474 19.3177 66.4141 19.8281C66.5859 20.3333 66.6719 20.901 66.6719 21.5312V22.5312H59.8594V20.9609H64.2812V20.7734C64.2812 20.4766 64.2266 20.2161 64.1172 19.9922C64.013 19.7682 63.8568 19.5964 63.6484 19.4766C63.4453 19.3516 63.1875 19.2891 62.875 19.2891C62.5781 19.2891 62.3307 19.3516 62.1328 19.4766C61.9349 19.6016 61.776 19.7786 61.6562 20.0078C61.5417 20.2318 61.4583 20.4948 61.4062 20.7969C61.3542 21.0938 61.3281 21.4141 61.3281 21.7578V22.0547C61.3281 22.3828 61.3724 22.6823 61.4609 22.9531C61.5495 23.224 61.6797 23.4557 61.8516 23.6484C62.0234 23.8411 62.2318 23.9922 62.4766 24.1016C62.7214 24.2109 63 24.2656 63.3125 24.2656C63.6979 24.2656 64.0651 24.1927 64.4141 24.0469C64.763 23.8958 65.0651 23.6615 65.3203 23.3438L66.4609 24.6484C66.2891 24.8984 66.0469 25.1406 65.7344 25.375C65.4271 25.6042 65.0573 25.7917 64.625 25.9375C64.1927 26.0833 63.7031 26.1562 63.1562 26.1562ZM81.3516 14.625V26H78.8125L74.5156 18.6484V26H71.9688V14.625H74.5156L78.8203 21.9766V14.625H81.3516ZM82.7578 21.8594V21.6953C82.7578 21.0755 82.8464 20.5052 83.0234 19.9844C83.2005 19.4583 83.4609 19.0026 83.8047 18.6172C84.1484 18.2318 84.5703 17.9323 85.0703 17.7188C85.5703 17.5 86.1432 17.3906 86.7891 17.3906C87.4453 17.3906 88.0234 17.5 88.5234 17.7188C89.0286 17.9323 89.4531 18.2318 89.7969 18.6172C90.1406 19.0026 90.401 19.4583 90.5781 19.9844C90.7552 20.5052 90.8438 21.0755 90.8438 21.6953V21.8594C90.8438 22.474 90.7552 23.0443 90.5781 23.5703C90.401 24.0911 90.1406 24.5469 89.7969 24.9375C89.4531 25.3229 89.0312 25.6224 88.5312 25.8359C88.0312 26.0495 87.4557 26.1562 86.8047 26.1562C86.1589 26.1562 85.5833 26.0495 85.0781 25.8359C84.5729 25.6224 84.1484 25.3229 83.8047 24.9375C83.4609 24.5469 83.2005 24.0911 83.0234 23.5703C82.8464 23.0443 82.7578 22.474 82.7578 21.8594ZM85.2031 21.6953V21.8594C85.2031 22.1927 85.2292 22.5052 85.2812 22.7969C85.3385 23.0885 85.4297 23.3438 85.5547 23.5625C85.6797 23.7812 85.8438 23.9531 86.0469 24.0781C86.2552 24.1979 86.5078 24.2578 86.8047 24.2578C87.1016 24.2578 87.3516 24.1979 87.5547 24.0781C87.7578 23.9531 87.9219 23.7812 88.0469 23.5625C88.1719 23.3438 88.2604 23.0885 88.3125 22.7969C88.3698 22.5052 88.3984 22.1927 88.3984 21.8594V21.6953C88.3984 21.3672 88.3698 21.0599 88.3125 20.7734C88.2604 20.4818 88.1719 20.224 88.0469 20C87.9219 19.776 87.7552 19.6016 87.5469 19.4766C87.3438 19.3516 87.0911 19.2891 86.7891 19.2891C86.4974 19.2891 86.25 19.3516 86.0469 19.4766C85.8438 19.6016 85.6797 19.776 85.5547 20C85.4297 20.224 85.3385 20.4818 85.2812 20.7734C85.2292 21.0599 85.2031 21.3672 85.2031 21.6953ZM96.4219 17.5469V19.2578H91.4062V17.5469H96.4219ZM92.5547 15.4531H95V23.3516C95 23.5859 95.0286 23.7656 95.0859 23.8906C95.1432 24.0156 95.237 24.1042 95.3672 24.1562C95.4974 24.2031 95.6641 24.2266 95.8672 24.2266C96.013 24.2266 96.138 24.2214 96.2422 24.2109C96.3464 24.2005 96.4427 24.1875 96.5312 24.1719V25.9375C96.3229 26.0052 96.1016 26.0573 95.8672 26.0938C95.6328 26.1354 95.3776 26.1562 95.1016 26.1562C94.5755 26.1562 94.1198 26.0703 93.7344 25.8984C93.3542 25.7266 93.0625 25.4557 92.8594 25.0859C92.6562 24.7109 92.5547 24.224 92.5547 23.625V15.4531ZM101.578 26.1562C100.906 26.1562 100.305 26.0495 99.7734 25.8359C99.2422 25.6224 98.7917 25.3281 98.4219 24.9531C98.0573 24.5729 97.7786 24.1354 97.5859 23.6406C97.3932 23.1458 97.2969 22.6172 97.2969 22.0547V21.7578C97.2969 21.1276 97.3854 20.5469 97.5625 20.0156C97.7396 19.4844 97.9974 19.0234 98.3359 18.6328C98.6797 18.237 99.1016 17.9323 99.6016 17.7188C100.102 17.5 100.672 17.3906 101.312 17.3906C101.911 17.3906 102.445 17.4896 102.914 17.6875C103.383 17.8802 103.779 18.1589 104.102 18.5234C104.424 18.8828 104.669 19.3177 104.836 19.8281C105.008 20.3333 105.094 20.901 105.094 21.5312V22.5312H98.2812V20.9609H102.703V20.7734C102.703 20.4766 102.648 20.2161 102.539 19.9922C102.435 19.7682 102.279 19.5964 102.07 19.4766C101.867 19.3516 101.609 19.2891 101.297 19.2891C101 19.2891 100.753 19.3516 100.555 19.4766C100.357 19.6016 100.198 19.7786 100.078 20.0078C99.9635 20.2318 99.8802 20.4948 99.8281 20.7969C99.776 21.0938 99.75 21.4141 99.75 21.7578V22.0547C99.75 22.3828 99.7943 22.6823 99.8828 22.9531C99.9714 23.224 100.102 23.4557 100.273 23.6484C100.445 23.8411 100.654 23.9922 100.898 24.1016C101.143 24.2109 101.422 24.2656 101.734 24.2656C102.12 24.2656 102.487 24.1927 102.836 24.0469C103.185 23.8958 103.487 23.6615 103.742 23.3438L104.883 24.6484C104.711 24.8984 104.469 25.1406 104.156 25.375C103.849 25.6042 103.479 25.7917 103.047 25.9375C102.615 26.0833 102.125 26.1562 101.578 26.1562ZM110.781 23.6484C110.781 23.4922 110.732 23.3542 110.633 23.2344C110.539 23.1146 110.367 23.0052 110.117 22.9062C109.872 22.8073 109.526 22.7083 109.078 22.6094C108.656 22.5208 108.263 22.4062 107.898 22.2656C107.534 22.1198 107.216 21.9453 106.945 21.7422C106.674 21.5339 106.464 21.2891 106.312 21.0078C106.161 20.7214 106.086 20.3958 106.086 20.0312C106.086 19.6771 106.161 19.3411 106.312 19.0234C106.469 18.7057 106.693 18.4245 106.984 18.1797C107.281 17.9349 107.641 17.7422 108.062 17.6016C108.49 17.4609 108.974 17.3906 109.516 17.3906C110.26 17.3906 110.904 17.5078 111.445 17.7422C111.987 17.9714 112.404 18.2943 112.695 18.7109C112.987 19.1224 113.133 19.5938 113.133 20.125H110.695C110.695 19.9062 110.654 19.7161 110.57 19.5547C110.487 19.3932 110.359 19.2682 110.188 19.1797C110.016 19.0859 109.789 19.0391 109.508 19.0391C109.289 19.0391 109.096 19.0781 108.93 19.1562C108.768 19.2292 108.641 19.3307 108.547 19.4609C108.458 19.5911 108.414 19.7422 108.414 19.9141C108.414 20.0339 108.44 20.1432 108.492 20.2422C108.549 20.3359 108.635 20.4245 108.75 20.5078C108.87 20.5859 109.023 20.6562 109.211 20.7188C109.404 20.7812 109.638 20.8411 109.914 20.8984C110.503 21.0078 111.039 21.1615 111.523 21.3594C112.013 21.5573 112.404 21.8307 112.695 22.1797C112.992 22.5286 113.141 22.9896 113.141 23.5625C113.141 23.9375 113.055 24.2812 112.883 24.5938C112.716 24.9062 112.474 25.1797 112.156 25.4141C111.839 25.6484 111.458 25.8307 111.016 25.9609C110.573 26.0911 110.073 26.1562 109.516 26.1562C108.719 26.1562 108.044 26.013 107.492 25.7266C106.94 25.4401 106.523 25.0807 106.242 24.6484C105.966 24.2109 105.828 23.763 105.828 23.3047H108.117C108.128 23.5859 108.198 23.8151 108.328 23.9922C108.464 24.1693 108.638 24.2995 108.852 24.3828C109.065 24.4609 109.305 24.5 109.57 24.5C109.836 24.5 110.057 24.4635 110.234 24.3906C110.411 24.3177 110.547 24.2188 110.641 24.0938C110.734 23.9635 110.781 23.8151 110.781 23.6484ZM117.242 14.625L116.945 22.4609H114.938L114.641 14.625H117.242ZM114.57 24.8906C114.57 24.5417 114.695 24.2474 114.945 24.0078C115.195 23.7682 115.526 23.6484 115.938 23.6484C116.344 23.6484 116.669 23.7682 116.914 24.0078C117.164 24.2474 117.289 24.5417 117.289 24.8906C117.289 25.2448 117.164 25.5417 116.914 25.7812C116.669 26.0156 116.344 26.1328 115.938 26.1328C115.526 26.1328 115.195 26.0156 114.945 25.7812C114.695 25.5417 114.57 25.2448 114.57 24.8906Z" fill="white"/>
<defs>
<linearGradient id="paint0_linear_132_2" x1="64.5" y1="5" x2="64.5" y2="35" gradientUnits="userSpaceOnUse">
<stop stop-color="#5F4CCE"/>
<stop offset="0.5" stop-color="#59038E"/>
<stop offset="1" stop-color="#AE02FF"/>
</linearGradient>
</defs>
</svg>
