<svg width="262" height="57" viewBox="0 0 262 57" fill="none" xmlns="http://www.w3.org/2000/svg">
<path d="M35.7227 1.34375V44H26.2012L10.0879 16.4316V44H0.537109V1.34375H10.0879L26.2305 28.9121V1.34375H35.7227ZM40.9961 28.4727V27.8574C40.9961 25.5332 41.3281 23.3945 41.9922 21.4414C42.6562 19.4688 43.6328 17.7598 44.9219 16.3145C46.2109 14.8691 47.793 13.7461 49.668 12.9453C51.543 12.125 53.6914 11.7148 56.1133 11.7148C58.5742 11.7148 60.7422 12.125 62.6172 12.9453C64.5117 13.7461 66.1035 14.8691 67.3926 16.3145C68.6816 17.7598 69.6582 19.4688 70.3223 21.4414C70.9863 23.3945 71.3184 25.5332 71.3184 27.8574V28.4727C71.3184 30.7773 70.9863 32.916 70.3223 34.8887C69.6582 36.8418 68.6816 38.5508 67.3926 40.0156C66.1035 41.4609 64.5215 42.584 62.6465 43.3848C60.7715 44.1855 58.6133 44.5859 56.1719 44.5859C53.75 44.5859 51.5918 44.1855 49.6973 43.3848C47.8027 42.584 46.2109 41.4609 44.9219 40.0156C43.6328 38.5508 42.6562 36.8418 41.9922 34.8887C41.3281 32.916 40.9961 30.7773 40.9961 28.4727ZM50.166 27.8574V28.4727C50.166 29.7227 50.2637 30.8945 50.459 31.9883C50.6738 33.082 51.0156 34.0391 51.4844 34.8594C51.9531 35.6797 52.5684 36.3242 53.3301 36.793C54.1113 37.2422 55.0586 37.4668 56.1719 37.4668C57.2852 37.4668 58.2227 37.2422 58.9844 36.793C59.7461 36.3242 60.3613 35.6797 60.8301 34.8594C61.2988 34.0391 61.6309 33.082 61.8262 31.9883C62.041 30.8945 62.1484 29.7227 62.1484 28.4727V27.8574C62.1484 26.627 62.041 25.4746 61.8262 24.4004C61.6309 23.3066 61.2988 22.3398 60.8301 21.5C60.3613 20.6602 59.7363 20.0059 58.9551 19.5371C58.1934 19.0684 57.2461 18.834 56.1133 18.834C55.0195 18.834 54.0918 19.0684 53.3301 19.5371C52.5684 20.0059 51.9531 20.6602 51.4844 21.5C51.0156 22.3398 50.6738 23.3066 50.459 24.4004C50.2637 25.4746 50.166 26.627 50.166 27.8574ZM92.2363 12.3008V18.7168H73.4277V12.3008H92.2363ZM77.7344 4.44922H86.9043V34.0684C86.9043 34.9473 87.0117 35.6211 87.2266 36.0898C87.4414 36.5586 87.793 36.8906 88.2812 37.0859C88.7695 37.2617 89.3945 37.3496 90.1562 37.3496C90.7031 37.3496 91.1719 37.3301 91.5625 37.291C91.9531 37.252 92.3145 37.2031 92.6465 37.1445V43.7656C91.8652 44.0195 91.0352 44.2148 90.1562 44.3516C89.2773 44.5078 88.3203 44.5859 87.2852 44.5859C85.3125 44.5859 83.6035 44.2637 82.1582 43.6191C80.7324 42.9746 79.6387 41.959 78.877 40.5723C78.1152 39.166 77.7344 37.3398 77.7344 35.0938V4.44922ZM111.572 44.5859C109.053 44.5859 106.797 44.1855 104.805 43.3848C102.812 42.584 101.123 41.4805 99.7363 40.0742C98.3691 38.6484 97.3242 37.0078 96.6016 35.1523C95.8789 33.2969 95.5176 31.3145 95.5176 29.2051V28.0918C95.5176 25.7285 95.8496 23.5508 96.5137 21.5586C97.1777 19.5664 98.1445 17.8379 99.4141 16.373C100.703 14.8887 102.285 13.7461 104.16 12.9453C106.035 12.125 108.174 11.7148 110.576 11.7148C112.822 11.7148 114.824 12.0859 116.582 12.8281C118.34 13.5508 119.824 14.5957 121.035 15.9629C122.246 17.3105 123.164 18.9414 123.789 20.8555C124.434 22.75 124.756 24.8789 124.756 27.2422V30.9922H99.209V25.1035H115.791V24.4004C115.791 23.2871 115.586 22.3105 115.176 21.4707C114.785 20.6309 114.199 19.9863 113.418 19.5371C112.656 19.0684 111.689 18.834 110.518 18.834C109.404 18.834 108.477 19.0684 107.734 19.5371C106.992 20.0059 106.396 20.6699 105.947 21.5293C105.518 22.3691 105.205 23.3555 105.01 24.4883C104.814 25.6016 104.717 26.8027 104.717 28.0918V29.2051C104.717 30.4355 104.883 31.5586 105.215 32.5742C105.547 33.5898 106.035 34.459 106.68 35.1816C107.324 35.9043 108.105 36.4707 109.023 36.8809C109.941 37.291 110.986 37.4961 112.158 37.4961C113.604 37.4961 114.98 37.2227 116.289 36.6758C117.598 36.1094 118.73 35.2305 119.688 34.0391L123.965 38.9316C123.32 39.8691 122.412 40.7773 121.24 41.6562C120.088 42.5156 118.701 43.2188 117.08 43.7656C115.459 44.3125 113.623 44.5859 111.572 44.5859ZM151.797 32.75C151.797 32.0273 151.689 31.3828 151.475 30.8164C151.26 30.2305 150.869 29.6934 150.303 29.2051C149.736 28.7168 148.936 28.2285 147.9 27.7402C146.865 27.2324 145.508 26.7148 143.828 26.1875C141.914 25.5625 140.088 24.8594 138.35 24.0781C136.631 23.2773 135.098 22.3496 133.75 21.2949C132.402 20.2402 131.338 19.0098 130.557 17.6035C129.795 16.1973 129.414 14.5566 129.414 12.6816C129.414 10.8652 129.814 9.22461 130.615 7.75977C131.416 6.29492 132.539 5.04492 133.984 4.00977C135.43 2.95508 137.129 2.1543 139.082 1.60742C141.035 1.04102 143.184 0.757812 145.527 0.757812C148.652 0.757812 151.396 1.31445 153.76 2.42773C156.143 3.52148 157.998 5.06445 159.326 7.05664C160.654 9.0293 161.318 11.3242 161.318 13.9414H151.826C151.826 12.7891 151.582 11.7734 151.094 10.8945C150.625 9.99609 149.902 9.29297 148.926 8.78516C147.969 8.27734 146.768 8.02344 145.322 8.02344C143.916 8.02344 142.734 8.23828 141.777 8.66797C140.84 9.07812 140.127 9.64453 139.639 10.3672C139.17 11.0898 138.936 11.8809 138.936 12.7402C138.936 13.4238 139.111 14.0488 139.463 14.6152C139.834 15.1621 140.361 15.6797 141.045 16.168C141.748 16.6367 142.607 17.0859 143.623 17.5156C144.639 17.9453 145.801 18.3555 147.109 18.7461C149.395 19.4688 151.416 20.2695 153.174 21.1484C154.951 22.0273 156.445 23.0234 157.656 24.1367C158.867 25.25 159.775 26.5098 160.381 27.916C161.006 29.3223 161.318 30.9141 161.318 32.6914C161.318 34.5859 160.947 36.2656 160.205 37.7305C159.482 39.1953 158.428 40.4453 157.041 41.4805C155.674 42.4961 154.033 43.2676 152.119 43.7949C150.205 44.3223 148.066 44.5859 145.703 44.5859C143.555 44.5859 141.436 44.3125 139.346 43.7656C137.256 43.1992 135.361 42.3398 133.662 41.1875C131.982 40.0352 130.635 38.5703 129.619 36.793C128.623 34.9961 128.125 32.8672 128.125 30.4062H137.676C137.676 31.6953 137.861 32.7891 138.232 33.6875C138.604 34.5664 139.131 35.2793 139.814 35.8262C140.518 36.373 141.367 36.7637 142.363 36.998C143.359 37.2324 144.473 37.3496 145.703 37.3496C147.129 37.3496 148.281 37.1543 149.16 36.7637C150.059 36.3535 150.723 35.7969 151.152 35.0938C151.582 34.3906 151.797 33.6094 151.797 32.75ZM175.439 19.0684V44H166.27V12.3008H174.883L175.439 19.0684ZM174.238 27.0371L171.953 27.0957C171.953 24.7129 172.246 22.5742 172.832 20.6797C173.418 18.7852 174.248 17.1738 175.322 15.8457C176.416 14.498 177.715 13.4727 179.219 12.7695C180.742 12.0664 182.422 11.7148 184.258 11.7148C185.742 11.7148 187.1 11.9297 188.33 12.3594C189.561 12.7891 190.615 13.4824 191.494 14.4395C192.393 15.377 193.076 16.627 193.545 18.1895C194.014 19.7324 194.248 21.6367 194.248 23.9023V44H185.049V23.873C185.049 22.5449 184.863 21.5195 184.492 20.7969C184.121 20.0742 183.574 19.5664 182.852 19.2734C182.148 18.9805 181.289 18.834 180.273 18.834C179.199 18.834 178.281 19.0488 177.52 19.4785C176.758 19.8887 176.133 20.4648 175.645 21.207C175.156 21.9492 174.795 22.8184 174.561 23.8145C174.346 24.8105 174.238 25.8848 174.238 27.0371ZM217.012 36.4414V22.8477C217.012 21.8906 216.865 21.0703 216.572 20.3867C216.279 19.7031 215.82 19.166 215.195 18.7754C214.57 18.3848 213.76 18.1895 212.764 18.1895C211.924 18.1895 211.191 18.3359 210.566 18.6289C209.961 18.9219 209.492 19.3418 209.16 19.8887C208.848 20.4355 208.691 21.1094 208.691 21.9102H199.551C199.551 20.4844 199.873 19.1562 200.518 17.9258C201.162 16.6953 202.08 15.6113 203.271 14.6738C204.482 13.7363 205.928 13.0137 207.607 12.5059C209.287 11.9785 211.172 11.7148 213.262 11.7148C215.742 11.7148 217.949 12.1348 219.883 12.9746C221.836 13.7949 223.379 15.0352 224.512 16.6953C225.645 18.3359 226.211 20.4062 226.211 22.9062V36.1777C226.211 38.0918 226.318 39.5957 226.533 40.6895C226.768 41.7637 227.1 42.7012 227.529 43.502V44H218.301C217.871 43.082 217.549 41.9492 217.334 40.6016C217.119 39.2344 217.012 37.8477 217.012 36.4414ZM218.154 24.6641L218.213 29.7031H213.672C212.656 29.7031 211.777 29.8301 211.035 30.084C210.312 30.3379 209.727 30.6895 209.277 31.1387C208.828 31.5684 208.496 32.0762 208.281 32.6621C208.086 33.2285 207.988 33.8535 207.988 34.5371C207.988 35.1816 208.145 35.7676 208.457 36.2949C208.77 36.8027 209.199 37.2031 209.746 37.4961C210.293 37.7891 210.928 37.9355 211.65 37.9355C212.842 37.9355 213.857 37.7012 214.697 37.2324C215.557 36.7637 216.221 36.1973 216.689 35.5332C217.158 34.8496 217.393 34.2148 217.393 33.6289L219.59 37.4375C219.238 38.2188 218.809 39.0293 218.301 39.8691C217.793 40.6895 217.148 41.4609 216.367 42.1836C215.586 42.8867 214.639 43.4629 213.525 43.9121C212.432 44.3613 211.113 44.5859 209.57 44.5859C207.578 44.5859 205.771 44.1855 204.15 43.3848C202.529 42.5645 201.23 41.4414 200.254 40.0156C199.297 38.5898 198.818 36.9492 198.818 35.0938C198.818 33.4336 199.121 31.959 199.727 30.6699C200.332 29.3809 201.24 28.2871 202.451 27.3887C203.682 26.4902 205.225 25.8164 207.08 25.3672C208.936 24.8984 211.104 24.6641 213.584 24.6641H218.154ZM241.387 18.3945V56.1875H232.246V12.3008H240.771L241.387 18.3945ZM261.162 27.7988V28.4141C261.162 30.7188 260.898 32.8574 260.371 34.8301C259.844 36.7832 259.053 38.4922 257.998 39.957C256.963 41.4219 255.684 42.5645 254.16 43.3848C252.637 44.1855 250.869 44.5859 248.857 44.5859C246.943 44.5859 245.283 44.1855 243.877 43.3848C242.49 42.5645 241.318 41.4316 240.361 39.9863C239.424 38.5215 238.662 36.8516 238.076 34.9766C237.51 33.082 237.07 31.0605 236.758 28.9121V27.7109C237.07 25.4258 237.52 23.3066 238.105 21.3535C238.691 19.4004 239.453 17.7109 240.391 16.2852C241.328 14.8398 242.49 13.7168 243.877 12.916C245.264 12.1152 246.914 11.7148 248.828 11.7148C250.82 11.7148 252.588 12.0957 254.131 12.8574C255.674 13.6191 256.963 14.7129 257.998 16.1387C259.053 17.5449 259.844 19.2344 260.371 21.207C260.898 23.1797 261.162 25.377 261.162 27.7988ZM251.992 28.4141V27.7988C251.992 26.5098 251.895 25.3281 251.699 24.2539C251.504 23.1602 251.191 22.2129 250.762 21.4121C250.332 20.5918 249.766 19.957 249.062 19.5078C248.359 19.0586 247.5 18.834 246.484 18.834C245.391 18.834 244.463 19.0098 243.701 19.3613C242.939 19.7129 242.324 20.2305 241.855 20.9141C241.387 21.5781 241.045 22.3984 240.83 23.375C240.635 24.3516 240.527 25.4648 240.508 26.7148V29.9375C240.527 31.4023 240.732 32.7109 241.123 33.8633C241.533 34.9961 242.168 35.8848 243.027 36.5293C243.906 37.1543 245.078 37.4668 246.543 37.4668C247.578 37.4668 248.438 37.2422 249.121 36.793C249.824 36.3242 250.381 35.6699 250.791 34.8301C251.221 33.9902 251.523 33.0234 251.699 31.9297C251.895 30.8359 251.992 29.6641 251.992 28.4141Z" fill="url(#paint0_linear_10_79)"/>
<defs>
<linearGradient id="paint0_linear_10_79" x1="50.9863" y1="-12" x2="225.89" y2="-12" gradientUnits="userSpaceOnUse">
<stop stop-color="#7900D9"/>
<stop offset="0.322855" stop-color="#6714FF" stop-opacity="0.995989"/>
<stop offset="0.718705" stop-color="#5865D5" stop-opacity="0.98959"/>
<stop offset="1" stop-color="#A705B5"/>
</linearGradient>
</defs>
</svg>
