<svg width="21" height="21" viewBox="0 0 21 21" fill="none" xmlns="http://www.w3.org/2000/svg">
<path d="M20.1612 17.4782L15.7551 13.0722C16.5222 11.83 16.986 10.381 16.986 8.8142C16.986 4.31425 13.3383 0.666664 8.83822 0.666664C4.33813 0.666664 0.69043 4.31425 0.69043 8.8142C0.69043 13.3141 4.33813 16.9617 8.83822 16.9617C10.4051 16.9617 11.8542 16.4979 13.0951 15.7321L17.5025 20.138C17.8572 20.481 18.3324 20.6708 18.8258 20.6666C19.3192 20.6624 19.7911 20.4645 20.1399 20.1155C20.4887 19.7666 20.6864 19.2945 20.6904 18.8012C20.6943 18.3078 20.5043 17.8327 20.1612 17.4782ZM8.83822 14.4548C5.72326 14.4548 3.19744 11.9291 3.19744 8.8142C3.19744 5.69933 5.72326 3.1736 8.83822 3.1736C11.9532 3.1736 14.479 5.69933 14.479 8.8142C14.479 11.9291 11.9532 14.4548 8.83822 14.4548Z" fill="black"/>
</svg>
