<svg width="127" height="40" viewBox="0 0 127 40" fill="none" xmlns="http://www.w3.org/2000/svg">
<rect x="2.5" y="2.5" width="122" height="35" rx="12.5" stroke="url(#paint0_linear_132_4)" stroke-width="5"/>
<path d="M20.1512 14.0128H22.6981V21.4816C22.6981 22.367 22.5106 23.1118 22.1356 23.716C21.7658 24.3201 21.2502 24.7759 20.5887 25.0832C19.9273 25.3905 19.1617 25.5441 18.2919 25.5441C17.4169 25.5441 16.646 25.3905 15.9794 25.0832C15.3179 24.7759 14.7971 24.3201 14.4169 23.716C14.0419 23.1118 13.8544 22.367 13.8544 21.4816V14.0128H16.4091V21.4816C16.4091 21.9712 16.482 22.3722 16.6278 22.6847C16.7788 22.992 16.995 23.2186 17.2762 23.3644C17.5575 23.505 17.896 23.5753 18.2919 23.5753C18.6877 23.5753 19.0236 23.505 19.2997 23.3644C19.5809 23.2186 19.7919 22.992 19.9325 22.6847C20.0783 22.3722 20.1512 21.9712 20.1512 21.4816V14.0128ZM26.8387 18.5597V28.6378H24.4012V16.9347H26.6747L26.8387 18.5597ZM32.1122 21.0675V21.2316C32.1122 21.8462 32.0419 22.4165 31.9012 22.9425C31.7606 23.4634 31.5497 23.9191 31.2684 24.3097C30.9924 24.7003 30.6512 25.005 30.245 25.2238C29.8387 25.4373 29.3674 25.5441 28.8309 25.5441C28.3205 25.5441 27.8778 25.4373 27.5028 25.2238C27.133 25.005 26.8205 24.703 26.5653 24.3175C26.3153 23.9269 26.1122 23.4816 25.9559 22.9816C25.8049 22.4764 25.6877 21.9373 25.6044 21.3644V21.0441C25.6877 20.4347 25.8075 19.8696 25.9637 19.3488C26.12 18.828 26.3231 18.3774 26.5731 17.9972C26.8231 17.6118 27.133 17.3123 27.5028 17.0988C27.8726 16.8852 28.3127 16.7785 28.8231 16.7785C29.3544 16.7785 29.8257 16.88 30.2372 17.0832C30.6486 17.2863 30.9924 17.578 31.2684 17.9582C31.5497 18.3332 31.7606 18.7837 31.9012 19.3097C32.0419 19.8358 32.1122 20.4217 32.1122 21.0675ZM29.6669 21.2316V21.0675C29.6669 20.7238 29.6408 20.4087 29.5887 20.1222C29.5367 19.8306 29.4533 19.578 29.3387 19.3644C29.2242 19.1457 29.0731 18.9764 28.8856 18.8566C28.6981 18.7368 28.469 18.6769 28.1981 18.6769C27.9065 18.6769 27.6591 18.7238 27.4559 18.8175C27.2528 18.9113 27.0887 19.0493 26.9637 19.2316C26.8387 19.4087 26.7476 19.6274 26.6903 19.8878C26.6382 20.1483 26.6096 20.4451 26.6044 20.7785V21.6378C26.6096 22.0285 26.6643 22.3774 26.7684 22.6847C26.8778 22.9868 27.0471 23.2238 27.2762 23.3957C27.5106 23.5623 27.8231 23.6457 28.2137 23.6457C28.4898 23.6457 28.719 23.5858 28.9012 23.466C29.0887 23.341 29.2372 23.1665 29.3466 22.9425C29.4611 22.7186 29.5419 22.4608 29.5887 22.1691C29.6408 21.8774 29.6669 21.5649 29.6669 21.2316ZM35.9794 13.3878V25.3878H33.5341V13.3878H35.9794ZM37.3856 21.2472V21.0832C37.3856 20.4634 37.4742 19.8931 37.6512 19.3722C37.8283 18.8462 38.0887 18.3905 38.4325 18.005C38.7762 17.6196 39.1981 17.3201 39.6981 17.1066C40.1981 16.8878 40.771 16.7785 41.4169 16.7785C42.0731 16.7785 42.6512 16.8878 43.1512 17.1066C43.6565 17.3201 44.0809 17.6196 44.4247 18.005C44.7684 18.3905 45.0288 18.8462 45.2059 19.3722C45.383 19.8931 45.4716 20.4634 45.4716 21.0832V21.2472C45.4716 21.8618 45.383 22.4321 45.2059 22.9582C45.0288 23.479 44.7684 23.9347 44.4247 24.3253C44.0809 24.7108 43.6591 25.0102 43.1591 25.2238C42.6591 25.4373 42.0835 25.5441 41.4325 25.5441C40.7867 25.5441 40.2111 25.4373 39.7059 25.2238C39.2007 25.0102 38.7762 24.7108 38.4325 24.3253C38.0887 23.9347 37.8283 23.479 37.6512 22.9582C37.4742 22.4321 37.3856 21.8618 37.3856 21.2472ZM39.8309 21.0832V21.2472C39.8309 21.5806 39.857 21.8931 39.9091 22.1847C39.9663 22.4764 40.0575 22.7316 40.1825 22.9503C40.3075 23.1691 40.4716 23.341 40.6747 23.466C40.883 23.5858 41.1356 23.6457 41.4325 23.6457C41.7294 23.6457 41.9794 23.5858 42.1825 23.466C42.3856 23.341 42.5497 23.1691 42.6747 22.9503C42.7997 22.7316 42.8882 22.4764 42.9403 22.1847C42.9976 21.8931 43.0262 21.5806 43.0262 21.2472V21.0832C43.0262 20.755 42.9976 20.4477 42.9403 20.1613C42.8882 19.8696 42.7997 19.6118 42.6747 19.3878C42.5497 19.1639 42.383 18.9894 42.1747 18.8644C41.9716 18.7394 41.719 18.6769 41.4169 18.6769C41.1252 18.6769 40.8778 18.7394 40.6747 18.8644C40.4716 18.9894 40.3075 19.1639 40.1825 19.3878C40.0575 19.6118 39.9663 19.8696 39.9091 20.1613C39.857 20.4477 39.8309 20.755 39.8309 21.0832ZM51.2294 23.3722V19.7472C51.2294 19.492 51.1903 19.2733 51.1122 19.091C51.0341 18.9087 50.9117 18.7655 50.745 18.6613C50.5783 18.5571 50.3622 18.505 50.0966 18.505C49.8726 18.505 49.6773 18.5441 49.5106 18.6222C49.3492 18.7003 49.2242 18.8123 49.1356 18.9582C49.0523 19.104 49.0106 19.2837 49.0106 19.4972H46.5731C46.5731 19.117 46.6591 18.7628 46.8309 18.4347C47.0028 18.1066 47.2476 17.8175 47.5653 17.5675C47.8882 17.3175 48.2736 17.1248 48.7216 16.9894C49.1695 16.8488 49.6721 16.7785 50.2294 16.7785C50.8908 16.7785 51.4794 16.8905 51.995 17.1144C52.5158 17.3332 52.9273 17.6639 53.2294 18.1066C53.5315 18.5441 53.6825 19.0962 53.6825 19.7628V23.3019C53.6825 23.8123 53.7111 24.2134 53.7684 24.505C53.8309 24.7915 53.9195 25.0415 54.0341 25.255V25.3878H51.5731C51.4585 25.1431 51.3726 24.841 51.3153 24.4816C51.258 24.117 51.2294 23.7472 51.2294 23.3722ZM51.5341 20.2316L51.5497 21.5753H50.3387C50.0679 21.5753 49.8335 21.6092 49.6356 21.6769C49.4429 21.7446 49.2867 21.8384 49.1669 21.9582C49.0471 22.0727 48.9585 22.2082 48.9012 22.3644C48.8492 22.5155 48.8231 22.6821 48.8231 22.8644C48.8231 23.0363 48.8648 23.1925 48.9481 23.3332C49.0315 23.4686 49.146 23.5753 49.2919 23.6535C49.4377 23.7316 49.607 23.7707 49.7997 23.7707C50.1174 23.7707 50.3882 23.7082 50.6122 23.5832C50.8413 23.4582 51.0184 23.3071 51.1434 23.13C51.2684 22.9477 51.3309 22.7785 51.3309 22.6222L51.9169 23.6378C51.8231 23.8462 51.7085 24.0623 51.5731 24.2863C51.4377 24.505 51.2658 24.7108 51.0575 24.9035C50.8492 25.091 50.5966 25.2446 50.2997 25.3644C50.008 25.4842 49.6565 25.5441 49.245 25.5441C48.7137 25.5441 48.232 25.4373 47.7997 25.2238C47.3674 25.005 47.021 24.7056 46.7606 24.3253C46.5054 23.9451 46.3778 23.5076 46.3778 23.0128C46.3778 22.5701 46.4585 22.1769 46.62 21.8332C46.7815 21.4894 47.0236 21.1977 47.3466 20.9582C47.6747 20.7186 48.0861 20.5389 48.5809 20.4191C49.0757 20.2941 49.6538 20.2316 50.3153 20.2316H51.5341ZM60.2059 23.4972V13.3878H62.6591V25.3878H60.4559L60.2059 23.4972ZM54.9403 21.2628V21.0988C54.9403 20.4582 55.0106 19.8748 55.1512 19.3488C55.2971 18.8175 55.508 18.3618 55.7841 17.9816C56.0653 17.5962 56.4117 17.2993 56.8231 17.091C57.2346 16.8826 57.7059 16.7785 58.2372 16.7785C58.7268 16.7785 59.1538 16.8878 59.5184 17.1066C59.883 17.3201 60.1929 17.6222 60.4481 18.0128C60.7085 18.3983 60.9195 18.854 61.0809 19.38C61.2424 19.9009 61.3648 20.466 61.4481 21.0753V21.3566C61.37 21.9399 61.2476 22.4842 61.0809 22.9894C60.9195 23.4946 60.7085 23.9399 60.4481 24.3253C60.1929 24.7056 59.8804 25.005 59.5106 25.2238C59.146 25.4373 58.7163 25.5441 58.2216 25.5441C57.6903 25.5441 57.219 25.4373 56.8075 25.2238C56.4012 25.0102 56.0601 24.7108 55.7841 24.3253C55.508 23.9399 55.2971 23.4868 55.1512 22.966C55.0106 22.4451 54.9403 21.8774 54.9403 21.2628ZM57.3778 21.0988V21.2628C57.3778 21.5962 57.4012 21.9061 57.4481 22.1925C57.5002 22.479 57.5835 22.7316 57.6981 22.9503C57.8127 23.1691 57.9637 23.341 58.1512 23.466C58.3387 23.5858 58.5679 23.6457 58.8387 23.6457C59.2033 23.6457 59.5028 23.5623 59.7372 23.3957C59.9716 23.2238 60.1486 22.9868 60.2684 22.6847C60.3882 22.3826 60.4507 22.0311 60.4559 21.63V20.8097C60.4559 20.4764 60.4221 20.1769 60.3544 19.9113C60.2867 19.6457 60.1851 19.4217 60.0497 19.2394C59.9195 19.0571 59.7554 18.9191 59.5575 18.8253C59.3596 18.7264 59.1252 18.6769 58.8544 18.6769C58.5887 18.6769 58.3622 18.7394 58.1747 18.8644C57.9872 18.9842 57.8335 19.1535 57.7137 19.3722C57.5992 19.591 57.5132 19.8488 57.4559 20.1457C57.4038 20.4373 57.3778 20.755 57.3778 21.0988ZM77.7762 14.0128V25.3878H75.2372L70.9403 18.0363V25.3878H68.3934V14.0128H70.9403L75.245 21.3644V14.0128H77.7762ZM79.1825 21.2472V21.0832C79.1825 20.4634 79.271 19.8931 79.4481 19.3722C79.6252 18.8462 79.8856 18.3905 80.2294 18.005C80.5731 17.6196 80.995 17.3201 81.495 17.1066C81.995 16.8878 82.5679 16.7785 83.2137 16.7785C83.87 16.7785 84.4481 16.8878 84.9481 17.1066C85.4533 17.3201 85.8778 17.6196 86.2216 18.005C86.5653 18.3905 86.8257 18.8462 87.0028 19.3722C87.1799 19.8931 87.2684 20.4634 87.2684 21.0832V21.2472C87.2684 21.8618 87.1799 22.4321 87.0028 22.9582C86.8257 23.479 86.5653 23.9347 86.2216 24.3253C85.8778 24.7108 85.4559 25.0102 84.9559 25.2238C84.4559 25.4373 83.8804 25.5441 83.2294 25.5441C82.5835 25.5441 82.008 25.4373 81.5028 25.2238C80.9976 25.0102 80.5731 24.7108 80.2294 24.3253C79.8856 23.9347 79.6252 23.479 79.4481 22.9582C79.271 22.4321 79.1825 21.8618 79.1825 21.2472ZM81.6278 21.0832V21.2472C81.6278 21.5806 81.6538 21.8931 81.7059 22.1847C81.7632 22.4764 81.8544 22.7316 81.9794 22.9503C82.1044 23.1691 82.2684 23.341 82.4716 23.466C82.6799 23.5858 82.9325 23.6457 83.2294 23.6457C83.5262 23.6457 83.7762 23.5858 83.9794 23.466C84.1825 23.341 84.3466 23.1691 84.4716 22.9503C84.5966 22.7316 84.6851 22.4764 84.7372 22.1847C84.7945 21.8931 84.8231 21.5806 84.8231 21.2472V21.0832C84.8231 20.755 84.7945 20.4477 84.7372 20.1613C84.6851 19.8696 84.5966 19.6118 84.4716 19.3878C84.3466 19.1639 84.1799 18.9894 83.9716 18.8644C83.7684 18.7394 83.5158 18.6769 83.2137 18.6769C82.9221 18.6769 82.6747 18.7394 82.4716 18.8644C82.2684 18.9894 82.1044 19.1639 81.9794 19.3878C81.8544 19.6118 81.7632 19.8696 81.7059 20.1613C81.6538 20.4477 81.6278 20.755 81.6278 21.0832ZM92.8466 16.9347V18.6457H87.8309V16.9347H92.8466ZM88.9794 14.841H91.4247V22.7394C91.4247 22.9738 91.4533 23.1535 91.5106 23.2785C91.5679 23.4035 91.6617 23.492 91.7919 23.5441C91.9221 23.591 92.0887 23.6144 92.2919 23.6144C92.4377 23.6144 92.5627 23.6092 92.6669 23.5988C92.771 23.5884 92.8674 23.5753 92.9559 23.5597V25.3253C92.7476 25.3931 92.5262 25.4451 92.2919 25.4816C92.0575 25.5233 91.8023 25.5441 91.5262 25.5441C91.0002 25.5441 90.5445 25.4582 90.1591 25.2863C89.7788 25.1144 89.4872 24.8436 89.2841 24.4738C89.0809 24.0988 88.9794 23.6118 88.9794 23.0128V14.841ZM98.0028 25.5441C97.3309 25.5441 96.7294 25.4373 96.1981 25.2238C95.6669 25.0102 95.2163 24.716 94.8466 24.341C94.482 23.9608 94.2033 23.5233 94.0106 23.0285C93.8179 22.5337 93.7216 22.005 93.7216 21.4425V21.1457C93.7216 20.5155 93.8101 19.9347 93.9872 19.4035C94.1643 18.8722 94.4221 18.4113 94.7606 18.0207C95.1044 17.6248 95.5262 17.3201 96.0262 17.1066C96.5262 16.8878 97.0966 16.7785 97.7372 16.7785C98.3361 16.7785 98.87 16.8774 99.3387 17.0753C99.8075 17.2681 100.203 17.5467 100.526 17.9113C100.849 18.2707 101.094 18.7056 101.261 19.216C101.432 19.7212 101.518 20.2889 101.518 20.9191V21.9191H94.7059V20.3488H99.1278V20.1613C99.1278 19.8644 99.0731 19.604 98.9637 19.38C98.8596 19.1561 98.7033 18.9842 98.495 18.8644C98.2919 18.7394 98.0341 18.6769 97.7216 18.6769C97.4247 18.6769 97.1773 18.7394 96.9794 18.8644C96.7815 18.9894 96.6226 19.1665 96.5028 19.3957C96.3882 19.6196 96.3049 19.8826 96.2528 20.1847C96.2007 20.4816 96.1747 20.8019 96.1747 21.1457V21.4425C96.1747 21.7707 96.219 22.0701 96.3075 22.341C96.396 22.6118 96.5262 22.8436 96.6981 23.0363C96.87 23.229 97.0783 23.38 97.3231 23.4894C97.5679 23.5988 97.8466 23.6535 98.1591 23.6535C98.5445 23.6535 98.9117 23.5806 99.2606 23.4347C99.6096 23.2837 99.9117 23.0493 100.167 22.7316L101.307 24.0363C101.136 24.2863 100.893 24.5285 100.581 24.7628C100.274 24.992 99.9038 25.1795 99.4716 25.3253C99.0393 25.4712 98.5497 25.5441 98.0028 25.5441ZM107.206 23.0363C107.206 22.88 107.156 22.742 107.057 22.6222C106.964 22.5024 106.792 22.3931 106.542 22.2941C106.297 22.1951 105.951 22.0962 105.503 21.9972C105.081 21.9087 104.688 21.7941 104.323 21.6535C103.959 21.5076 103.641 21.3332 103.37 21.13C103.099 20.9217 102.888 20.6769 102.737 20.3957C102.586 20.1092 102.511 19.7837 102.511 19.4191C102.511 19.0649 102.586 18.729 102.737 18.4113C102.893 18.0936 103.117 17.8123 103.409 17.5675C103.706 17.3227 104.065 17.13 104.487 16.9894C104.914 16.8488 105.399 16.7785 105.94 16.7785C106.685 16.7785 107.328 16.8957 107.87 17.13C108.412 17.3592 108.828 17.6821 109.12 18.0988C109.412 18.5102 109.557 18.9816 109.557 19.5128H107.12C107.12 19.2941 107.078 19.104 106.995 18.9425C106.912 18.7811 106.784 18.6561 106.612 18.5675C106.44 18.4738 106.214 18.4269 105.932 18.4269C105.714 18.4269 105.521 18.466 105.354 18.5441C105.193 18.617 105.065 18.7186 104.972 18.8488C104.883 18.979 104.839 19.13 104.839 19.3019C104.839 19.4217 104.865 19.5311 104.917 19.63C104.974 19.7238 105.06 19.8123 105.175 19.8957C105.294 19.9738 105.448 20.0441 105.636 20.1066C105.828 20.1691 106.063 20.229 106.339 20.2863C106.927 20.3957 107.464 20.5493 107.948 20.7472C108.438 20.9451 108.828 21.2186 109.12 21.5675C109.417 21.9165 109.565 22.3774 109.565 22.9503C109.565 23.3253 109.479 23.6691 109.307 23.9816C109.141 24.2941 108.899 24.5675 108.581 24.8019C108.263 25.0363 107.883 25.2186 107.44 25.3488C106.998 25.479 106.498 25.5441 105.94 25.5441C105.143 25.5441 104.469 25.4009 103.917 25.1144C103.365 24.828 102.948 24.4686 102.667 24.0363C102.391 23.5988 102.253 23.1509 102.253 22.6925H104.542C104.552 22.9738 104.623 23.203 104.753 23.38C104.888 23.5571 105.063 23.6873 105.276 23.7707C105.49 23.8488 105.729 23.8878 105.995 23.8878C106.261 23.8878 106.482 23.8514 106.659 23.7785C106.836 23.7056 106.972 23.6066 107.065 23.4816C107.159 23.3514 107.206 23.203 107.206 23.0363ZM113.667 14.0128L113.37 21.8488H111.362L111.065 14.0128H113.667ZM110.995 24.2785C110.995 23.9295 111.12 23.6352 111.37 23.3957C111.62 23.1561 111.951 23.0363 112.362 23.0363C112.768 23.0363 113.094 23.1561 113.339 23.3957C113.589 23.6352 113.714 23.9295 113.714 24.2785C113.714 24.6326 113.589 24.9295 113.339 25.1691C113.094 25.4035 112.768 25.5207 112.362 25.5207C111.951 25.5207 111.62 25.4035 111.37 25.1691C111.12 24.9295 110.995 24.6326 110.995 24.2785Z" fill="white"/>
<defs>
<linearGradient id="paint0_linear_132_4" x1="63.5" y1="5" x2="63.5" y2="35" gradientUnits="userSpaceOnUse">
<stop stop-color="#5F4CCE"/>
<stop offset="0.5" stop-color="#59038E"/>
<stop offset="1" stop-color="#AE02FF"/>
</linearGradient>
</defs>
</svg>
